<?xml version="1.0" encoding="utf-8" standalone="no"?>
<!DOCTYPE svg PUBLIC "-//W3C//DTD SVG 1.1//EN"
  "http://www.w3.org/Graphics/SVG/1.1/DTD/svg11.dtd">
<svg xmlns:xlink="http://www.w3.org/1999/xlink" width="478.8pt" height="216pt" viewBox="0 0 478.8 216" xmlns="http://www.w3.org/2000/svg" version="1.1">
 <metadata>
  <rdf:RDF xmlns:dc="http://purl.org/dc/elements/1.1/" xmlns:cc="http://creativecommons.org/ns#" xmlns:rdf="http://www.w3.org/1999/02/22-rdf-syntax-ns#">
   <cc:Work>
    <dc:type rdf:resource="http://purl.org/dc/dcmitype/StillImage"/>
    <dc:date>2026-10-08T22:01:29.503167</dc:date>
    <dc:format>image/svg+xml</dc:format>
    <dc:creator>
     <cc:Agent>
      <dc:title>Matplotlib v3.11.2, https://matplotlib.org/</dc:title>
     </cc:Agent>
    </dc:creator>
   </cc:Work>
  </rdf:RDF>
 </metadata>
 <defs>
  <style type="text/css">*{stroke-linejoin: round; stroke-linecap: butt}</style>
 </defs>
 <g id="figure_1">
  <g id="patch_1">
   <path d="M 0 216 
L 478.8 216 
L 478.8 0 
L 0 0 
z
" style="fill: #ffffff"/>
  </g>
  <g id="axes_1">
   <g id="patch_2">
    <path d="M 47.88 166.32 
L 464.436 166.32 
L 464.436 15.12 
L 47.88 15.12 
z
" style="fill: #ffffff"/>
   </g>
   <g id="matplotlib.axis_1">
    <g id="xtick_1">
     <g id="line2d_1">
      <defs>
       <path id="m2784146324" d="M 0 0 
L 0 3.5 
" style="stroke: #000000; stroke-width: 0.8"/>
      </defs>
      <g>
       <use xlink:href="#m2784146324" x="47.88" y="166.32" style="stroke: #000000; stroke-width: 0.8"/>
      </g>
     </g>
     <g id="text_1">
      <text style="font-size: 8px; font-family: 'Microsoft YaHei', 'Arial'; text-anchor: middle" x="47.88" y="179.816094" transform="rotate(-0 47.88 179.816094)">400</text>
     </g>
    </g>
    <g id="xtick_2">
     <g id="line2d_2">
      <g>
       <use xlink:href="#m2784146324" x="99.9495" y="166.32" style="stroke: #000000; stroke-width: 0.8"/>
      </g>
     </g>
     <g id="text_2">
      <text style="font-size: 8px; font-family: 'Microsoft YaHei', 'Arial'; text-anchor: middle" x="99.9495" y="179.816094" transform="rotate(-0 99.9495 179.816094)">450</text>
     </g>
    </g>
    <g id="xtick_3">
     <g id="line2d_3">
      <g>
       <use xlink:href="#m2784146324" x="152.019" y="166.32" style="stroke: #000000; stroke-width: 0.8"/>
      </g>
     </g>
     <g id="text_3">
      <text style="font-size: 8px; font-family: 'Microsoft YaHei', 'Arial'; text-anchor: middle" x="152.019" y="179.816094" transform="rotate(-0 152.019 179.816094)">500</text>
     </g>
    </g>
    <g id="xtick_4">
     <g id="line2d_4">
      <g>
       <use xlink:href="#m2784146324" x="204.0885" y="166.32" style="stroke: #000000; stroke-width: 0.8"/>
      </g>
     </g>
     <g id="text_4">
      <text style="font-size: 8px; font-family: 'Microsoft YaHei', 'Arial'; text-anchor: middle" x="204.0885" y="179.816094" transform="rotate(-0 204.0885 179.816094)">550</text>
     </g>
    </g>
    <g id="xtick_5">
     <g id="line2d_5">
      <g>
       <use xlink:href="#m2784146324" x="256.158" y="166.32" style="stroke: #000000; stroke-width: 0.8"/>
      </g>
     </g>
     <g id="text_5">
      <text style="font-size: 8px; font-family: 'Microsoft YaHei', 'Arial'; text-anchor: middle" x="256.158" y="179.816094" transform="rotate(-0 256.158 179.816094)">600</text>
     </g>
    </g>
    <g id="xtick_6">
     <g id="line2d_6">
      <g>
       <use xlink:href="#m2784146324" x="308.2275" y="166.32" style="stroke: #000000; stroke-width: 0.8"/>
      </g>
     </g>
     <g id="text_6">
      <text style="font-size: 8px; font-family: 'Microsoft YaHei', 'Arial'; text-anchor: middle" x="308.2275" y="179.816094" transform="rotate(-0 308.2275 179.816094)">650</text>
     </g>
    </g>
    <g id="xtick_7">
     <g id="line2d_7">
      <g>
       <use xlink:href="#m2784146324" x="360.297" y="166.32" style="stroke: #000000; stroke-width: 0.8"/>
      </g>
     </g>
     <g id="text_7">
      <text style="font-size: 8px; font-family: 'Microsoft YaHei', 'Arial'; text-anchor: middle" x="360.297" y="179.816094" transform="rotate(-0 360.297 179.816094)">700</text>
     </g>
    </g>
    <g id="xtick_8">
     <g id="line2d_8">
      <g>
       <use xlink:href="#m2784146324" x="412.3665" y="166.32" style="stroke: #000000; stroke-width: 0.8"/>
      </g>
     </g>
     <g id="text_8">
      <text style="font-size: 8px; font-family: 'Microsoft YaHei', 'Arial'; text-anchor: middle" x="412.3665" y="179.816094" transform="rotate(-0 412.3665 179.816094)">750</text>
     </g>
    </g>
    <g id="xtick_9">
     <g id="line2d_9">
      <g>
       <use xlink:href="#m2784146324" x="464.436" y="166.32" style="stroke: #000000; stroke-width: 0.8"/>
      </g>
     </g>
     <g id="text_9">
      <text style="font-size: 8px; font-family: 'Microsoft YaHei', 'Arial'; text-anchor: middle" x="464.436" y="179.816094" transform="rotate(-0 464.436 179.816094)">800</text>
     </g>
    </g>
    <g id="text_10">
     <text style="font-size: 8px; font-family: 'Microsoft YaHei', 'Arial'; text-anchor: middle" x="256.158" y="192.488438" transform="rotate(-0 256.158 192.488438)">波长 (nm)</text>
    </g>
   </g>
   <g id="matplotlib.axis_2">
    <g id="ytick_1">
     <g id="line2d_10">
      <defs>
       <path id="mf216b1356a" d="M 0 0 
L -3.5 0 
" style="stroke: #000000; stroke-width: 0.8"/>
      </defs>
      <g>
       <use xlink:href="#mf216b1356a" x="47.88" y="166.32" style="stroke: #000000; stroke-width: 0.8"/>
      </g>
     </g>
     <g id="text_11">
      <text style="font-size: 8px; font-family: 'Microsoft YaHei', 'Arial'; text-anchor: end" x="40.88" y="169.568047" transform="rotate(-0 40.88 169.568047)">0.0</text>
     </g>
    </g>
    <g id="ytick_2">
     <g id="line2d_11">
      <g>
       <use xlink:href="#mf216b1356a" x="47.88" y="136.08" style="stroke: #000000; stroke-width: 0.8"/>
      </g>
     </g>
     <g id="text_12">
      <text style="font-size: 8px; font-family: 'Microsoft YaHei', 'Arial'; text-anchor: end" x="40.88" y="139.328047" transform="rotate(-0 40.88 139.328047)">0.2</text>
     </g>
    </g>
    <g id="ytick_3">
     <g id="line2d_12">
      <g>
       <use xlink:href="#mf216b1356a" x="47.88" y="105.84" style="stroke: #000000; stroke-width: 0.8"/>
      </g>
     </g>
     <g id="text_13">
      <text style="font-size: 8px; font-family: 'Microsoft YaHei', 'Arial'; text-anchor: end" x="40.88" y="109.088047" transform="rotate(-0 40.88 109.088047)">0.4</text>
     </g>
    </g>
    <g id="ytick_4">
     <g id="line2d_13">
      <g>
       <use xlink:href="#mf216b1356a" x="47.88" y="75.6" style="stroke: #000000; stroke-width: 0.8"/>
      </g>
     </g>
     <g id="text_14">
      <text style="font-size: 8px; font-family: 'Microsoft YaHei', 'Arial'; text-anchor: end" x="40.88" y="78.848047" transform="rotate(-0 40.88 78.848047)">0.6</text>
     </g>
    </g>
    <g id="ytick_5">
     <g id="line2d_14">
      <g>
       <use xlink:href="#mf216b1356a" x="47.88" y="45.36" style="stroke: #000000; stroke-width: 0.8"/>
      </g>
     </g>
     <g id="text_15">
      <text style="font-size: 8px; font-family: 'Microsoft YaHei', 'Arial'; text-anchor: end" x="40.88" y="48.608047" transform="rotate(-0 40.88 48.608047)">0.8</text>
     </g>
    </g>
    <g id="ytick_6">
     <g id="line2d_15">
      <g>
       <use xlink:href="#mf216b1356a" x="47.88" y="15.12" style="stroke: #000000; stroke-width: 0.8"/>
      </g>
     </g>
     <g id="text_16">
      <text style="font-size: 8px; font-family: 'Microsoft YaHei', 'Arial'; text-anchor: end" x="40.88" y="18.368047" transform="rotate(-0 40.88 18.368047)">1.0</text>
     </g>
    </g>
    <g id="text_17">
     <text style="font-size: 8px; font-family: 'Microsoft YaHei', 'Arial'; text-anchor: middle" x="23.543906" y="90.72" transform="rotate(-90 23.543906 90.72)">反射率</text>
    </g>
   </g>
   <g id="line2d_16">
    <path d="M 47.88 156.831817 
L 58.2939 159.769113 
L 68.7078 163.780949 
L 79.1217 161.111452 
L 89.5356 147.312684 
L 99.9495 126.727202 
L 110.3634 106.744743 
L 120.7773 91.12792 
L 131.1912 80.227237 
L 141.6051 73.187732 
L 152.019 69.099961 
L 162.4329 67.30464 
L 172.8468 67.39648 
L 183.2607 69.164169 
L 193.6746 72.531029 
L 204.0885 77.502982 
L 214.5024 84.115017 
L 224.9163 92.365118 
L 235.3302 102.129903 
L 245.7441 113.071759 
L 256.158 124.574237 
L 266.5719 135.766542 
L 276.9858 145.683191 
L 287.3997 153.526028 
L 297.8136 158.900184 
L 308.2275 161.889095 
L 318.6414 162.944286 
L 329.0553 162.683486 
L 339.4692 161.710876 
L 349.8831 160.51456 
L 360.297 159.435903 
L 370.7109 158.680999 
L 381.1248 158.347633 
L 391.5387 158.452582 
L 401.9526 158.953537 
L 412.3665 159.765206 
L 422.7804 160.771253 
L 433.1943 161.834217 
L 443.6082 162.805201 
L 454.0221 163.53436 
L 464.436 163.882334 
" clip-path="url(#p5b2ab7770b)" style="fill: none; stroke: #263441; stroke-width: 1.5; stroke-linecap: square"/>
   </g>
   <g id="line2d_17">
    <path d="M 47.88 156.435945 
L 58.2939 158.713171 
L 68.7078 159.750215 
L 79.1217 154.321772 
L 89.5356 140.838649 
L 99.9495 123.057785 
L 110.3634 105.966241 
L 120.7773 92.218771 
L 131.1912 82.257172 
L 141.6051 75.589134 
L 152.019 71.577734 
L 162.4329 69.717746 
L 172.8468 69.681723 
L 183.2607 71.295871 
L 193.6746 74.502388 
L 204.0885 79.320039 
L 214.5024 85.798574 
L 224.9163 93.957713 
L 235.3302 103.703958 
L 245.7441 114.731571 
L 256.158 126.441438 
L 266.5719 137.94247 
L 276.9858 148.197888 
L 287.3997 156.303425 
L 297.8136 161.768204 
L 308.2275 164.633016 
L 318.6414 165.370721 
L 329.0553 164.662156 
L 339.4692 163.184581 
L 349.8831 161.487214 
L 360.297 159.952751 
L 370.7109 158.810181 
L 381.1248 158.166344 
L 391.5387 158.037631 
L 401.9526 158.374901 
L 412.3665 159.081196 
L 422.7804 160.024443 
L 433.1943 161.047899 
L 443.6082 161.980684 
L 454.0221 162.649819 
L 464.436 162.894001 
" clip-path="url(#p5b2ab7770b)" style="fill: none; stroke-dasharray: 5,2.5; stroke-dashoffset: 0; stroke: #7d9b87; stroke-width: 1.25"/>
   </g>
   <g id="line2d_18">
    <path d="M 47.88 156.831817 
L 58.2939 159.769113 
L 68.7078 163.780949 
L 79.1217 161.111449 
L 89.5356 147.312681 
L 99.9495 126.7272 
L 110.3634 106.744743 
L 120.7773 91.127922 
L 131.1912 80.22724 
L 141.6051 73.187736 
L 152.019 69.099964 
L 162.4329 67.304644 
L 172.8468 67.396484 
L 183.2607 69.164174 
L 193.6746 72.531033 
L 204.0885 77.502986 
L 214.5024 84.11502 
L 224.9163 92.365121 
L 235.3302 102.129905 
L 245.7441 113.071759 
L 256.158 124.574236 
L 266.5719 135.766539 
L 276.9858 145.683187 
L 287.3997 153.526024 
L 297.8136 158.900181 
L 308.2275 161.889094 
L 318.6414 162.944286 
L 329.0553 162.683488 
L 339.4692 161.710879 
L 349.8831 160.514565 
L 360.297 159.435908 
L 370.7109 158.681004 
L 381.1248 158.347638 
L 391.5387 158.452586 
L 401.9526 158.95354 
L 412.3665 159.765208 
L 422.7804 160.771254 
L 433.1943 161.834217 
L 443.6082 162.8052 
L 454.0221 163.534358 
L 464.436 163.882331 
" clip-path="url(#p5b2ab7770b)" style="fill: none; stroke-dasharray: 2.6,2.6; stroke-dashoffset: 0; stroke: #3879ab; stroke-width: 1.3"/>
   </g>
   <g id="patch_3">
    <path d="M 47.88 166.32 
L 47.88 15.12 
" style="fill: none; stroke: #000000; stroke-width: 0.8; stroke-linejoin: miter; stroke-linecap: square"/>
   </g>
   <g id="patch_4">
    <path d="M 47.88 166.32 
L 464.436 166.32 
" style="fill: none; stroke: #000000; stroke-width: 0.8; stroke-linejoin: miter; stroke-linecap: square"/>
   </g>
   <g id="text_18">
    <text style="font-size: 7.5px; font-family: 'Microsoft YaHei', 'Arial'; text-anchor: start" x="56.21112" y="27.41175" transform="rotate(-0 56.21112 27.41175)">光谱 MAE = 1.771e-08</text>
   </g>
   <g id="legend_1">
    <g id="line2d_19">
     <path d="M 368.291859 25.48875 
L 375.791859 25.48875 
L 383.291859 25.48875 
" style="fill: none; stroke: #263441; stroke-width: 1.5; stroke-linecap: square"/>
    </g>
    <g id="text_19">
     <text style="font-size: 7.5px; font-family: 'Microsoft YaHei', 'Arial'; text-anchor: start" x="389.291859" y="28.11375" transform="rotate(-0 389.291859 28.11375)">目标光谱</text>
    </g>
    <g id="line2d_20">
     <path d="M 368.291859 37.383135 
L 375.791859 37.383135 
L 383.291859 37.383135 
" style="fill: none; stroke-dasharray: 5,2.5; stroke-dashoffset: 0; stroke: #7d9b87; stroke-width: 1.25"/>
    </g>
    <g id="text_20">
     <text style="font-size: 7.5px; font-family: 'Microsoft YaHei', 'Arial'; text-anchor: start" x="389.291859" y="40.008135" transform="rotate(-0 389.291859 40.008135)">反向MLP → TMM</text>
    </g>
    <g id="line2d_21">
     <path d="M 368.291859 49.292754 
L 375.791859 49.292754 
L 383.291859 49.292754 
" style="fill: none; stroke-dasharray: 2.6,2.6; stroke-dashoffset: 0; stroke: #3879ab; stroke-width: 1.3"/>
    </g>
    <g id="text_21">
     <text style="font-size: 7.5px; font-family: 'Microsoft YaHei', 'Arial'; text-anchor: start" x="389.291859" y="51.917754" transform="rotate(-0 389.291859 51.917754)">多起点优化 → TMM</text>
    </g>
   </g>
  </g>
  <g id="text_22">
   <text style="font-size: 8px; font-family: 'Microsoft YaHei', 'Arial'; text-anchor: middle" x="239.4" y="204.12" transform="rotate(-0 239.4 204.12)">最终膜厚 (nm)：168.03, 89.47, 168.17, 68.98</text>
  </g>
 </g>
 <defs>
  <clipPath id="p5b2ab7770b">
   <rect x="47.88" y="15.12" width="416.556" height="151.2"/>
  </clipPath>
 </defs>
</svg>
